<svg width="190" height="44" viewBox="0 0 190 44" fill="none" xmlns="http://www.w3.org/2000/svg">
<g clip-path="url(#clip0_564_4501)">
<path d="M186.098 31.276C185.569 32.4988 184.943 33.6244 184.217 34.6593C183.227 36.07 182.417 37.0465 181.793 37.5888C180.825 38.4789 179.788 38.9347 178.677 38.9607C177.88 38.9607 176.919 38.7338 175.8 38.2737C174.677 37.8156 173.645 37.5888 172.702 37.5888C171.712 37.5888 170.651 37.8156 169.516 38.2737C168.379 38.7338 167.463 38.9736 166.763 38.9974C165.698 39.0428 164.637 38.574 163.577 37.5888C162.901 36.999 162.055 35.9879 161.042 34.5555C159.955 33.026 159.061 31.2523 158.361 29.2301C157.611 27.0459 157.235 24.9308 157.235 22.8832C157.235 20.5376 157.742 18.5146 158.757 16.8193C159.555 15.4576 160.616 14.3834 161.945 13.5948C163.273 12.8063 164.709 12.4044 166.254 12.3787C167.1 12.3787 168.209 12.6404 169.588 13.1545C170.962 13.6705 171.845 13.9321 172.232 13.9321C172.521 13.9321 173.501 13.6262 175.163 13.0163C176.735 12.4507 178.062 12.2165 179.148 12.3087C182.093 12.5464 184.305 13.7072 185.776 15.7985C183.143 17.3942 181.84 19.6291 181.866 22.4962C181.89 24.7295 182.7 26.5879 184.292 28.0635C185.014 28.7483 185.82 29.2776 186.716 29.6535C186.522 30.2174 186.317 30.7575 186.098 31.276ZM179.345 4.70057C179.345 6.45097 178.705 8.08531 177.431 9.59804C175.893 11.3964 174.032 12.4356 172.014 12.2716C171.989 12.0616 171.974 11.8406 171.974 11.6083C171.974 9.92794 172.705 8.1296 174.004 6.65921C174.653 5.91473 175.478 5.2957 176.478 4.80189C177.476 4.31545 178.42 4.04643 179.308 4.00037C179.334 4.23437 179.345 4.46838 179.345 4.70054V4.70057Z" fill="white"/>
</g>
<g clip-path="url(#clip1_564_4501)">
<path d="M111.818 21.9031C111.818 20.7134 111.722 19.5174 111.516 18.3471H95.0093V25.086H104.462C104.07 27.2595 102.809 29.1821 100.964 30.4039V34.7765H106.603C109.915 31.7285 111.818 27.2273 111.818 21.9031Z" fill="white"/>
<path d="M95.0093 39.0012C99.7291 39.0012 103.709 37.4515 106.61 34.7765L100.97 30.4039C99.4012 31.4714 97.3756 32.0758 95.0157 32.0758C90.4502 32.0758 86.5792 28.9957 85.1903 24.8546H79.3708V29.3622C82.3416 35.2717 88.3925 39.0012 95.0093 39.0012Z" fill="white"/>
<path d="M85.1838 24.8546C84.4508 22.6812 84.4508 20.3277 85.1838 18.1543V13.6467H79.3708C76.8888 18.5916 76.8888 24.4174 79.3708 29.3623L85.1838 24.8546Z" fill="white"/>
<path d="M95.0093 10.9266C97.5042 10.888 99.9156 11.8268 101.723 13.5501L106.719 8.55382C103.555 5.58303 99.3562 3.94974 95.0093 4.00118C88.3925 4.00118 82.3416 7.73074 79.3708 13.6466L85.1838 18.1542C86.5663 14.0067 90.4438 10.9266 95.0093 10.9266Z" fill="white"/>
</g>
<g clip-path="url(#clip2_564_4501)">
<path d="M35 21.5C35 11.835 27.165 4 17.5 4C7.83502 4 0 11.835 0 21.5C0 30.2346 6.39947 37.4746 14.7656 38.7874V26.5586H10.3223V21.5H14.7656V17.6445C14.7656 13.2586 17.3783 10.8359 21.3757 10.8359C23.2897 10.8359 25.293 11.1777 25.293 11.1777V15.4844H23.0863C20.9125 15.4844 20.2344 16.8335 20.2344 18.2188V21.5H25.0879L24.312 26.5586H20.2344V38.7874C28.6006 37.4746 35 30.2346 35 21.5Z" fill="white"/>
<path d="M24.312 26.5586L25.0879 21.5H20.2344V18.2188C20.2344 16.8348 20.9125 15.4844 23.0863 15.4844H25.293V11.1777C25.293 11.1777 23.2904 10.8359 21.3756 10.8359C17.3783 10.8359 14.7656 13.2586 14.7656 17.6445V21.5H10.3223V26.5586H14.7656V38.7874C16.5775 39.0709 18.4225 39.0709 20.2344 38.7874V26.5586H24.312Z" fill="#545151"/>
</g>
<defs>
<clipPath id="clip0_564_4501">
<rect width="35" height="35" fill="white" transform="translate(154.318 4)"/>
</clipPath>
<clipPath id="clip1_564_4501">
<rect width="35" height="35" fill="white" transform="translate(77.1592 4)"/>
</clipPath>
<clipPath id="clip2_564_4501">
<rect width="35" height="35" fill="white" transform="translate(0 4)"/>
</clipPath>
</defs>
</svg>
