<svg width="150" height="59" viewBox="0 0 150 59" fill="none" xmlns="http://www.w3.org/2000/svg">
<g filter="url(#filter0_d_564_4368)">
<rect x="4" width="141.636" height="50.6667" rx="23.0303" fill="#EB582F"/>
<path d="M52.7321 31.9697H60.6009V29.8697H55.2791V19.7995H52.7321V31.9697ZM65.9143 32.1553C68.6469 32.1553 70.3927 30.401 70.3927 27.4491V27.4323C70.3927 24.5057 68.6132 22.743 65.9059 22.743C63.207 22.743 61.4359 24.5226 61.4359 27.4323V27.4491C61.4359 30.3926 63.1649 32.1553 65.9143 32.1553ZM65.9228 30.2239C64.7083 30.2239 63.9408 29.2203 63.9408 27.4491V27.4323C63.9408 25.6864 64.7167 24.6744 65.9059 24.6744C67.1035 24.6744 67.8879 25.6864 67.8879 27.4323V27.4491C67.8879 29.2118 67.1204 30.2239 65.9228 30.2239ZM75.8917 35.1072C78.6074 35.1072 80.3026 33.7324 80.3026 31.7167V22.9285H77.8399V24.4719H77.7893C77.3001 23.4177 76.3134 22.743 75.0399 22.743C72.7543 22.743 71.3373 24.4551 71.3373 27.3395V27.3479C71.3373 30.1564 72.7374 31.8432 74.9977 31.8432C76.3049 31.8432 77.317 31.2444 77.7893 30.2998H77.8399V31.683C77.8399 32.695 77.1652 33.3529 75.8917 33.3529C74.8627 33.3529 74.2049 32.9649 74.0109 32.5179L73.9856 32.4589H71.5904L71.5988 32.5348C71.835 33.9854 73.4037 35.1072 75.8917 35.1072ZM75.8495 30.0384C74.6182 30.0384 73.8422 29.0347 73.8422 27.407V27.3985C73.8422 25.7792 74.6266 24.784 75.8495 24.784C77.0471 24.784 77.8484 25.7876 77.8484 27.3985V27.407C77.8484 29.0263 77.0556 30.0384 75.8495 30.0384ZM85.557 31.9697H88.104V19.7995H85.557V31.9697ZM89.9173 31.9697H92.38V26.7744C92.38 25.5937 93.0801 24.784 94.1849 24.784C95.2898 24.784 95.8464 25.4587 95.8464 26.6395V31.9697H98.3091V26.1334C98.3091 24.0165 97.179 22.743 95.1886 22.743C93.8223 22.743 92.8945 23.3755 92.4307 24.4129H92.38V22.9285H89.9173V31.9697Z" fill="white"/>
</g>
<defs>
<filter id="filter0_d_564_4368" x="0" y="0" width="149.636" height="58.6667" filterUnits="userSpaceOnUse" color-interpolation-filters="sRGB">
<feFlood flood-opacity="0" result="BackgroundImageFix"/>
<feColorMatrix in="SourceAlpha" type="matrix" values="0 0 0 0 0 0 0 0 0 0 0 0 0 0 0 0 0 0 127 0" result="hardAlpha"/>
<feOffset dy="4"/>
<feGaussianBlur stdDeviation="2"/>
<feComposite in2="hardAlpha" operator="out"/>
<feColorMatrix type="matrix" values="0 0 0 0 0 0 0 0 0 0 0 0 0 0 0 0 0 0 0.25 0"/>
<feBlend mode="normal" in2="BackgroundImageFix" result="effect1_dropShadow_564_4368"/>
<feBlend mode="normal" in="SourceGraphic" in2="effect1_dropShadow_564_4368" result="shape"/>
</filter>
</defs>
</svg>
