<svg width="150" height="59" viewBox="0 0 150 59" fill="none" xmlns="http://www.w3.org/2000/svg">
<g filter="url(#filter0_d_564_4373)">
<rect x="5" y="1" width="139.636" height="48.6667" rx="22.0303" fill="white" stroke="#6C91AC" stroke-width="2"/>
<path d="M49.4646 32.1806C52.5346 32.1806 54.3732 30.6962 54.3732 28.36V28.3516C54.3732 26.4371 53.2261 25.3997 50.6791 24.8936L49.3887 24.6322C47.9887 24.3539 47.3645 23.9069 47.3645 23.1394V23.1309C47.3645 22.2623 48.1489 21.6634 49.4562 21.655C50.7128 21.655 51.59 22.237 51.7165 23.19L51.7249 23.2912H54.1286L54.1201 23.1309C54.0021 20.9972 52.2731 19.5887 49.4562 19.5887C46.7573 19.5887 44.8175 21.0562 44.8175 23.2828V23.2912C44.8175 25.1214 46.032 26.2684 48.4357 26.7491L49.7176 27.0021C51.2273 27.3142 51.8261 27.7275 51.8261 28.554V28.5624C51.8261 29.4901 50.9405 30.1058 49.5321 30.1058C48.1405 30.1058 47.1368 29.5154 46.9766 28.5708L46.9597 28.4781H44.556L44.5645 28.613C44.7079 30.8564 46.5718 32.1806 49.4646 32.1806ZM57.0046 21.7646C57.7467 21.7646 58.3202 21.1827 58.3202 20.4827C58.3202 19.7827 57.7467 19.2007 57.0046 19.2007C56.2624 19.2007 55.6889 19.7827 55.6889 20.4827C55.6889 21.1827 56.2624 21.7646 57.0046 21.7646ZM55.7732 31.9697H58.2359V22.9285H55.7732V31.9697ZM64.1144 35.1072C66.8301 35.1072 68.5253 33.7324 68.5253 31.7167V22.9285H66.0626V24.4719H66.012C65.5228 23.4177 64.5361 22.743 63.2625 22.743C60.9769 22.743 59.56 24.4551 59.56 27.3395V27.3479C59.56 30.1564 60.9601 31.8432 63.2204 31.8432C64.5276 31.8432 65.5397 31.2444 66.012 30.2998H66.0626V31.683C66.0626 32.695 65.3879 33.3529 64.1144 33.3529C63.0854 33.3529 62.4276 32.9649 62.2336 32.5179L62.2083 32.4589H59.8131L59.8215 32.5348C60.0576 33.9854 61.6264 35.1072 64.1144 35.1072ZM64.0722 30.0384C62.8408 30.0384 62.0649 29.0347 62.0649 27.407V27.3985C62.0649 25.7792 62.8493 24.784 64.0722 24.784C65.2698 24.784 66.071 25.7876 66.071 27.3985V27.407C66.071 29.0263 65.2783 30.0384 64.0722 30.0384ZM70.1446 31.9697H72.6074V26.7744C72.6074 25.5937 73.3074 24.784 74.4122 24.784C75.5171 24.784 76.0737 25.4587 76.0737 26.6395V31.9697H78.5364V26.1334C78.5364 24.0165 77.4063 22.743 75.4159 22.743C74.0496 22.743 73.1218 23.3755 72.658 24.4129H72.6074V22.9285H70.1446V31.9697ZM88.8343 32.1806C91.9717 32.1806 93.9284 30.3673 93.9284 27.6684V19.7995H91.3813V27.4407C91.3813 29.0178 90.4705 30.0215 88.8343 30.0215C87.1981 30.0215 86.2788 29.0178 86.2788 27.4407V19.7995H83.7317V27.6684C83.7317 30.3757 85.7137 32.1806 88.8343 32.1806ZM95.7501 34.9216H98.2128V30.4263H98.2634C98.7526 31.4974 99.7731 32.1553 101.063 32.1553C103.324 32.1553 104.724 30.3841 104.724 27.4491V27.4407C104.724 24.4972 103.324 22.743 101.03 22.743C99.7478 22.743 98.761 23.4093 98.2719 24.5057H98.2128V22.9285H95.7501V34.9216ZM100.22 30.1143C99.0225 30.1143 98.2044 29.0853 98.2044 27.4576V27.4491C98.2044 25.8129 99.0225 24.784 100.22 24.784C101.443 24.784 102.219 25.7876 102.219 27.4407V27.4491C102.219 29.0938 101.443 30.1143 100.22 30.1143Z" fill="#6C91AC"/>
</g>
<defs>
<filter id="filter0_d_564_4373" x="0" y="0" width="149.636" height="58.6667" filterUnits="userSpaceOnUse" color-interpolation-filters="sRGB">
<feFlood flood-opacity="0" result="BackgroundImageFix"/>
<feColorMatrix in="SourceAlpha" type="matrix" values="0 0 0 0 0 0 0 0 0 0 0 0 0 0 0 0 0 0 127 0" result="hardAlpha"/>
<feOffset dy="4"/>
<feGaussianBlur stdDeviation="2"/>
<feComposite in2="hardAlpha" operator="out"/>
<feColorMatrix type="matrix" values="0 0 0 0 0 0 0 0 0 0 0 0 0 0 0 0 0 0 0.25 0"/>
<feBlend mode="normal" in2="BackgroundImageFix" result="effect1_dropShadow_564_4373"/>
<feBlend mode="normal" in="SourceGraphic" in2="effect1_dropShadow_564_4373" result="shape"/>
</filter>
</defs>
</svg>
